# xmcd
#
# Track frame offsets:
#	150
#	8207
#	17529
#	26468
#	38030
#	49017
#	54642
#	65750
#	77431
#	89386
#	99111
#	109057
#	121008
#	129958
#	138547
#	149197
#	159446
#	167603
#	179057
#	188059
#	198923
#	208193
#	216420
#	224303
#
# Disc length: 3109 seconds
# Revision: 1
# Processed by: cddbd v1.5.2PL0 Copyright (c) Steve Scherf et al.
# Submitted via: dBpowerAMP V12.0
#
DISCID=530c2318
DTITLE=Johnny Cash - Johnny Cash, Vol. 2: 5 Classic Albums Plus
DYEAR=1961
DGENRE=Country
TTITLE0=Sugartime
TTITLE1=Down The Street To 301
TTITLE2=Life Goes On
TTITLE3=Port Of Lonely Hearts
TTITLE4=Cry! Cry! Cry!
TTITLE5=My Treasure
TTITLE6=Oh Lonesome Me
TTITLE7=So Doggone Lonesome
TTITLE8=You're The Neares Thing To Heaven
TTITLE9=The Story Of A Broken Heart
TTITLE10=Hey Porter
TTITLE11=Home Of The Blues
TTITLE12=Lost On The Desert
TTITLE13=Accidentally On Purpose
TTITLE14=In The Jailhouse Now
TTITLE15=Mr. Lonesome
TTITLE16=You Won't Have Far To Go
TTITLE17=In Them Old Cottonfields Back Home
TTITLE18=Delia's Gone
TTITLE19=I Forgot More Than You'll Ever Know About Her
TTITLE20=You Remembered Me
TTITLE21=I'm Free From The Chain Gang Now
TTITLE22=Let Me Down Easy
TTITLE23=Sing It Pretty Sue
EXTD=
EXTT0=
EXTT1=
EXTT2=
EXTT3=
EXTT4=
EXTT5=
EXTT6=
EXTT7=
EXTT8=
EXTT9=
EXTT10=
EXTT11=
EXTT12=
EXTT13=
EXTT14=
EXTT15=
EXTT16=
EXTT17=
EXTT18=
EXTT19=
EXTT20=
EXTT21=
EXTT22=
EXTT23=
PLAYORDER=
